<?xml version="1.0" standalone="no"?>
<!DOCTYPE svg PUBLIC "-//W3C//DTD SVG 20010904//EN"
 "http://www.w3.org/TR/2001/REC-SVG-20010904/DTD/svg10.dtd">
<svg version="1.0" xmlns="http://www.w3.org/2000/svg"
 width="1092.000000pt" height="1280.000000pt" viewBox="0 0 1092.000000 1280.000000"
 preserveAspectRatio="xMidYMid meet">
<metadata>
Created by potrace 1.15, written by Peter Selinger 2001-2017
</metadata>
<g transform="translate(0.000000,1280.000000) scale(0.100000,-0.100000)"
fill="#000000" stroke="none">
<path d="M6525 12789 c-310 -43 -601 -180 -886 -418 -467 -389 -756 -1001
-786 -1659 -5 -117 -8 -134 -25 -143 -28 -15 -58 -69 -58 -104 0 -27 -8 -35
-86 -79 -204 -116 -467 -339 -769 -657 -160 -167 -319 -370 -482 -614 -245
-367 -359 -578 -563 -1035 -43 -96 -97 -215 -120 -265 -97 -210 -215 -634
-261 -943 l-13 -82 -28 27 c-42 40 -101 163 -149 311 -36 112 -41 138 -41 222
-1 163 31 261 143 433 77 117 140 245 158 319 23 99 9 245 -32 324 -31 60 -38
176 -20 331 20 175 13 226 -31 231 -58 7 -114 -78 -136 -205 -10 -63 -16 -75
-45 -98 -44 -33 -51 -59 -76 -280 -18 -159 -26 -197 -70 -327 -27 -81 -49
-156 -49 -168 0 -68 -52 46 -71 157 -15 84 -7 205 23 349 18 87 23 141 22 269
0 177 -17 282 -58 362 -26 53 -113 166 -218 285 -78 89 -103 128 -142 218 -31
70 -74 123 -120 147 -28 15 -31 14 -49 -8 -37 -46 -1 -206 79 -344 100 -174
97 -166 85 -274 -6 -53 -13 -114 -14 -136 -6 -66 11 -247 33 -347 38 -170 138
-504 180 -599 23 -52 42 -100 43 -108 3 -20 -87 -50 -150 -51 -29 0 -77 9
-108 21 -47 18 -63 31 -113 95 -122 156 -192 333 -237 594 -43 257 -61 318
-128 452 -78 155 -293 544 -366 663 -71 116 -156 205 -195 205 -28 0 -28 -1
-24 -43 3 -23 16 -65 30 -92 14 -28 48 -95 75 -150 112 -221 133 -317 139
-640 7 -302 24 -407 96 -600 66 -174 158 -273 448 -485 197 -143 254 -195 306
-276 34 -53 84 -164 84 -187 0 -7 18 -49 41 -93 37 -72 40 -84 36 -138 -3 -32
-9 -62 -14 -67 -14 -14 -127 45 -178 92 -53 49 -87 103 -114 180 -24 71 -91
203 -130 257 -32 43 -64 55 -75 26 -9 -23 -7 -79 3 -89 5 -6 26 -57 46 -115
46 -128 64 -156 221 -328 68 -75 122 -138 119 -140 -7 -7 -129 90 -195 158
-41 41 -82 96 -110 148 -25 46 -59 105 -76 130 -42 64 -159 142 -260 175 -43
14 -132 42 -197 62 -72 23 -139 51 -170 73 -29 19 -91 54 -138 78 -48 24 -129
76 -180 116 -128 100 -155 118 -173 118 -24 0 -39 -38 -33 -86 12 -106 102
-224 292 -383 66 -55 183 -154 260 -221 135 -116 187 -155 415 -312 125 -86
131 -81 -118 -97 -249 -17 -349 -29 -464 -57 -56 -14 -164 -38 -239 -54 -371
-76 -414 -133 -145 -191 60 -13 110 -31 146 -53 119 -72 141 -77 250 -54 56
11 57 11 151 -33 150 -69 192 -61 391 78 68 48 148 99 178 114 57 28 117 41
112 24 -1 -6 -13 -41 -26 -80 -31 -88 -46 -198 -46 -328 0 -131 20 -211 76
-314 l45 -83 -2 -143 c-3 -135 -1 -147 22 -193 21 -42 28 -49 54 -49 43 0 72
48 80 133 3 37 14 99 25 137 34 125 40 200 39 452 -2 243 -1 250 24 328 25 76
93 205 108 205 4 0 29 -26 56 -58 129 -149 175 -232 198 -354 7 -40 21 -112
30 -160 l16 -86 -37 -59 c-57 -87 -123 -237 -204 -453 -81 -218 -150 -364
-214 -454 -43 -59 -165 -185 -256 -262 -86 -73 -143 -130 -273 -274 -71 -80
-230 -244 -352 -365 -227 -225 -308 -322 -427 -512 -143 -227 -174 -389 -85
-447 96 -63 324 -35 671 83 66 22 121 39 123 37 2 -1 -17 -42 -41 -90 -77
-151 -85 -250 -24 -282 45 -23 170 -14 267 20 41 14 76 24 78 22 3 -2 -6 -35
-20 -73 -36 -100 -42 -148 -23 -178 29 -44 106 -26 218 50 l53 35 8 -37 c21
-101 135 -140 271 -93 66 22 105 45 194 112 35 27 67 48 73 48 5 0 1 -17 -10
-38 -35 -69 -45 -118 -32 -151 36 -85 210 -57 340 55 62 54 147 171 211 293
30 58 130 220 223 360 151 230 188 297 372 661 191 379 323 612 358 634 16 10
69 -19 147 -81 l45 -36 84 6 c110 8 124 1 268 -132 63 -58 136 -123 161 -143
42 -33 48 -43 53 -88 4 -28 15 -61 25 -72 23 -25 74 -48 107 -48 23 0 24 -3
19 -45 -7 -64 13 -104 62 -126 23 -10 51 -19 64 -19 12 0 22 -5 22 -11 0 -6 7
-26 16 -45 20 -42 79 -78 157 -95 47 -10 57 -16 57 -33 0 -47 81 -339 107
-388 30 -55 89 -101 153 -118 19 -5 100 -16 179 -24 100 -10 147 -19 152 -29
23 -40 108 -132 172 -184 40 -33 151 -115 247 -183 209 -148 290 -226 394
-381 42 -64 88 -127 102 -140 32 -30 30 -41 -11 -77 -64 -57 -128 -60 -239
-12 -63 26 -88 25 -116 -5 -19 -21 -24 -37 -24 -78 0 -79 33 -139 122 -227
134 -132 207 -154 477 -143 152 6 163 5 213 -17 48 -21 60 -33 122 -124 82
-120 126 -165 200 -203 68 -35 84 -65 104 -193 8 -52 21 -113 30 -135 17 -47
77 -181 93 -211 15 -26 97 -70 148 -79 90 -16 361 -110 500 -175 56 -26 105
-60 165 -113 57 -51 117 -93 180 -126 108 -56 124 -72 207 -196 64 -96 163
-198 209 -215 70 -27 97 13 100 150 2 52 6 199 9 325 4 135 2 257 -3 295 -7
44 -7 98 1 167 9 86 8 117 -6 195 -9 51 -19 112 -23 135 -9 64 -41 85 -123 81
l-65 -3 -53 90 c-95 158 -139 189 -388 275 -261 89 -304 128 -446 397 -153
291 -194 434 -193 678 1 261 56 455 237 834 120 250 151 303 280 468 68 88 88
106 146 137 37 19 105 46 151 60 164 48 266 95 388 179 89 61 116 95 176 219
34 73 63 116 112 168 79 83 134 112 264 140 52 12 172 46 265 77 94 30 193 62
220 70 107 33 215 107 215 147 0 7 -9 21 -21 32 -30 27 -142 25 -229 -4 -36
-11 -135 -35 -220 -52 -130 -27 -168 -31 -235 -25 -65 5 -92 2 -147 -15 -36
-11 -113 -27 -170 -35 -56 -8 -125 -21 -152 -29 l-49 -15 29 31 c83 88 314
253 512 366 142 81 235 122 457 199 173 59 232 88 394 193 130 83 219 128 426
215 88 37 185 80 216 95 99 51 136 121 87 168 -39 36 -69 36 -170 4 -51 -17
-160 -49 -243 -72 -100 -28 -183 -59 -250 -92 -87 -44 -109 -51 -185 -58 -102
-9 -137 -22 -465 -172 -310 -142 -515 -222 -515 -199 0 15 72 125 121 187 59
71 180 172 321 267 97 64 174 99 443 198 174 63 303 124 386 180 35 23 136
115 224 203 88 89 187 184 221 212 70 61 115 134 98 161 -15 24 -84 29 -121 9
-15 -8 -53 -37 -83 -64 -113 -101 -226 -136 -548 -167 -181 -17 -256 -34 -374
-85 -107 -47 -190 -101 -230 -151 -17 -21 -61 -61 -99 -89 -95 -71 -143 -130
-201 -245 -28 -55 -61 -112 -73 -127 -13 -16 -30 -59 -40 -99 -22 -100 -38
-133 -75 -161 -23 -16 -48 -56 -85 -135 -30 -62 -57 -113 -61 -113 -4 0 -4 29
-1 63 7 70 28 131 112 317 115 253 183 379 460 845 202 340 272 488 359 756
41 129 91 299 111 379 68 270 89 320 244 567 159 255 211 373 211 477 0 103
-58 146 -145 107 -80 -35 -242 -210 -319 -344 -15 -27 -49 -63 -75 -82 -52
-38 -61 -54 -98 -165 -15 -44 -40 -93 -61 -119 -44 -54 -61 -101 -62 -171 0
-40 -13 -93 -45 -183 -24 -69 -49 -155 -54 -189 -8 -49 -39 -120 -140 -323
-144 -288 -151 -308 -181 -480 -27 -151 -34 -181 -75 -285 -18 -47 -61 -175
-95 -285 -63 -201 -135 -402 -151 -419 -11 -13 -11 5 1 124 15 146 45 281 125
561 95 332 123 458 135 612 15 179 0 317 -48 461 l-37 111 0 205 0 205 -29 53
c-33 59 -54 75 -94 70 -57 -7 -72 -75 -92 -437 -11 -185 -48 -473 -98 -761
l-27 -155 3 -480 c2 -343 7 -517 18 -610 13 -118 13 -146 -2 -304 -16 -164
-16 -179 1 -294 28 -195 28 -202 -36 -298 -53 -82 -177 -217 -220 -239 -19
-11 -18 -7 8 32 85 125 133 244 133 328 0 66 -13 90 -49 90 -28 0 -28 2 -35
68 -26 255 -99 388 -242 442 -69 25 -127 25 -183 -1 -49 -22 -47 -23 -81 43
-40 76 -88 70 -150 -18 l-35 -50 -42 30 c-37 26 -46 28 -68 18 -28 -13 -41
-37 -50 -93 -5 -37 -38 -89 -55 -89 -5 0 -21 21 -36 48 -71 125 -90 139 -146
104 -18 -12 -64 -52 -101 -91 -57 -58 -75 -71 -110 -76 -92 -15 -155 -65 -175
-139 -4 -14 -29 -39 -57 -58 -74 -49 -89 -78 -104 -200 -16 -123 -10 -182 25
-255 41 -86 171 -201 304 -268 59 -30 66 -37 82 -81 22 -64 97 -155 178 -217
61 -47 65 -52 62 -86 -2 -20 6 -78 17 -128 28 -123 27 -184 -4 -258 -13 -33
-25 -79 -25 -102 0 -32 -8 -50 -35 -83 -42 -50 -55 -94 -57 -192 -1 -61 3 -82
25 -128 15 -30 27 -68 27 -83 0 -40 -32 -96 -80 -142 -39 -37 -42 -38 -37 -15
24 103 27 164 12 222 -8 33 -15 99 -15 148 0 249 -54 380 -172 415 -37 11 -71
35 -142 100 -239 221 -378 267 -448 149 -13 -22 -28 -34 -41 -34 -31 0 -81
-33 -109 -72 -23 -31 -50 -92 -80 -183 -18 -57 -16 -227 5 -294 9 -30 17 -70
17 -88 0 -62 48 -123 119 -152 24 -10 33 -23 41 -55 39 -151 73 -226 137 -305
46 -55 117 -101 157 -101 17 0 63 9 101 20 83 24 145 26 184 5 32 -16 77 -65
86 -93 6 -21 -117 -304 -135 -310 -27 -9 -183 51 -252 97 -87 59 -287 259
-316 318 -12 22 -42 100 -67 173 -24 72 -59 159 -77 193 -44 81 -136 179 -201
211 -102 51 -115 30 -58 -92 23 -48 43 -100 44 -117 5 -70 -81 -25 -181 95
-210 254 -371 387 -631 524 l-116 61 -8 78 c-16 163 -78 355 -206 641 -33 72
-87 199 -121 281 -34 83 -79 183 -101 223 -22 41 -39 75 -37 77 2 1 76 12 165
24 534 70 995 202 1290 370 185 105 403 290 734 620 349 350 501 543 704 900
369 649 555 1238 555 1756 0 122 -5 169 -24 255 -30 129 -91 302 -185 524 -39
92 -80 200 -91 239 -49 177 -10 347 150 659 59 117 70 145 70 188 0 30 -7 61
-16 75 -13 20 -14 25 -3 28 8 2 79 25 159 50 158 51 250 71 500 112 91 14 178
31 193 37 46 18 77 48 77 74 0 32 -32 46 -190 79 -147 31 -298 80 -403 130
-190 90 -314 204 -495 458 -62 86 -139 185 -170 219 -143 154 -489 325 -789
388 -114 24 -377 35 -488 19z"/>
</g>
</svg>
